<?xml version="1.0" encoding="UTF-8" standalone="no"?>
<svg
   xmlns:dc="http://purl.org/dc/elements/1.1/"
   xmlns:cc="http://creativecommons.org/ns#"
   xmlns:rdf="http://www.w3.org/1999/02/22-rdf-syntax-ns#"
   xmlns:svg="http://www.w3.org/2000/svg"
   xmlns="http://www.w3.org/2000/svg"
   version="1.1"
   id="svg4818"
   viewBox="0 0 448.28777 458.93466"
   height="129.52156mm"
   width="126.51677mm">
  <defs
     id="defs4820" />
  <metadata
     id="metadata4823">
    <rdf:RDF>
      <cc:Work
         rdf:about="">
        <dc:format>image/svg+xml</dc:format>
        <dc:type
           rdf:resource="http://purl.org/dc/dcmitype/StillImage" />
        <dc:title></dc:title>
      </cc:Work>
    </rdf:RDF>
  </metadata>
  <g
     transform="translate(-75.856123,-40.037713)"
     id="layer1">
    <g
       id="g4806"
       transform="translate(824.39989,-649.98126)">
      <rect
         style="opacity:1;fill:#323232;fill-opacity:1;stroke:none;stroke-width:1;stroke-linecap:round;stroke-linejoin:miter;stroke-miterlimit:0;stroke-dasharray:none;stroke-dashoffset:0;stroke-opacity:0"
         id="rect4204-9-8-5"
         width="250"
         height="25"
         x="-829.27423"
         y="844.83203"
         transform="matrix(0.95648202,-0.29179126,0.29179126,0.95648202,0,0)" />
      <rect
         style="opacity:1;fill:#323232;fill-opacity:1;stroke:none;stroke-width:1;stroke-linecap:round;stroke-linejoin:miter;stroke-miterlimit:0;stroke-dasharray:none;stroke-dashoffset:0;stroke-opacity:0"
         id="rect4204-2-1"
         width="225"
         height="100"
         x="-804.27423"
         y="719.83203"
         transform="matrix(0.95648202,-0.29179126,0.29179126,0.95648202,0,0)" />
      <rect
         style="opacity:1;fill:#323232;fill-opacity:1;stroke:none;stroke-width:1;stroke-linecap:round;stroke-linejoin:miter;stroke-miterlimit:0;stroke-dasharray:none;stroke-dashoffset:0;stroke-opacity:0"
         id="rect4204-2-1-8"
         width="175"
         height="100"
         x="-804.27423"
         y="594.83203"
         transform="matrix(0.95648202,-0.29179126,0.29179126,0.95648202,0,0)" />
      <ellipse
         style="opacity:1;fill:#ffffff;fill-opacity:1;stroke:none;stroke-width:1;stroke-linecap:round;stroke-linejoin:miter;stroke-miterlimit:0;stroke-dasharray:none;stroke-dashoffset:0;stroke-opacity:0"
         id="path4266-0-3-7-6"
         cx="-829.27423"
         cy="869.83203"
         rx="75"
         ry="74.999985"
         transform="matrix(0.95648202,-0.29179126,0.29179126,0.95648202,0,0)" />
      <path
         style="opacity:1;fill:#323232;fill-opacity:1;stroke:none;stroke-width:1;stroke-linecap:round;stroke-linejoin:miter;stroke-miterlimit:0;stroke-dasharray:none;stroke-dashoffset:0;stroke-opacity:0"
         d="m -539.18164,1023.9531 a 50.000007,49.999985 73.034773 0 0 -14.78516,2.1758 50.000007,49.999985 73.034773 0 0 -33.23437,62.4141 50.000007,49.999985 73.034773 0 0 62.41406,33.2343 50.000007,49.999985 73.034773 0 0 33.23438,-62.414 50.000007,49.999985 73.034773 0 0 -47.62891,-35.4102 z m -0.0977,25 a 25.000004,25.000023 73.034773 0 1 23.81446,17.7051 25.000004,25.000023 73.034773 0 1 -16.61719,31.207 25.000004,25.000023 73.034773 0 1 -31.20703,-16.6172 25.000004,25.000023 73.034773 0 1 16.61718,-31.207 25.000004,25.000023 73.034773 0 1 7.39258,-1.0879 z"
         id="path4266-0-3-0-6-7" />
      <rect
         style="opacity:1;fill:#323232;fill-opacity:1;stroke:none;stroke-width:1;stroke-linecap:round;stroke-linejoin:miter;stroke-miterlimit:0;stroke-dasharray:none;stroke-dashoffset:0;stroke-opacity:0"
         id="rect4204-9-8-5-7"
         width="308.52194"
         height="25.449848"
         x="-791.78729"
         y="-851.9696"
         transform="matrix(-0.28853202,-0.95747025,0.95547243,-0.2950804,0,0)" />
      <g
         id="g4801"
         transform="matrix(0.95548853,0.29502825,-0.29502825,0.95548853,182.40066,223.2517)">
        <rect
           transform="matrix(0.95648202,-0.29179126,0.29179126,0.95648202,0,0)"
           y="469.832"
           x="-904.27423"
           height="25"
           width="50"
           id="rect4204-9-8-5-1"
           style="opacity:1;fill:#323232;fill-opacity:1;stroke:none;stroke-width:1;stroke-linecap:round;stroke-linejoin:miter;stroke-miterlimit:0;stroke-dasharray:none;stroke-dashoffset:0;stroke-opacity:0" />
        <path
           id="rect4204-9-8-5-1-3"
           d="m -727.82919,713.24518 a 25.000004,25.000023 73.034773 0 0 -16.61727,31.20683 l 47.8241,-14.58956 a 25.000004,25.000023 73.034773 0 0 -31.20683,-16.61727 z"
           style="opacity:1;fill:#323232;fill-opacity:1;stroke:none;stroke-width:1;stroke-linecap:round;stroke-linejoin:miter;stroke-miterlimit:0;stroke-dasharray:none;stroke-dashoffset:0;stroke-opacity:0" />
        <path
           id="rect4204-9-8-5-1-3-8"
           d="m -680.00509,698.65562 a 25.000004,25.000023 73.034773 0 0 -16.61727,31.20683 l 47.8241,-14.58957 a 25.000004,25.000023 73.034773 0 0 -31.20683,-16.61726 z"
           style="opacity:1;fill:#323232;fill-opacity:1;stroke:none;stroke-width:1;stroke-linecap:round;stroke-linejoin:miter;stroke-miterlimit:0;stroke-dasharray:none;stroke-dashoffset:0;stroke-opacity:0" />
      </g>
    </g>
  </g>
</svg>
